<?xml version="1.0" encoding="utf-8"?>
<!-- Generator: Adobe Illustrator 27.5.0, SVG Export Plug-In . SVG Version: 6.00 Build 0)  -->
<svg version="1.1" xmlns="http://www.w3.org/2000/svg" xmlns:xlink="http://www.w3.org/1999/xlink" x="0px" y="0px"
	 viewBox="0 0 750 500" style="enable-background:new 0 0 750 500;" xml:space="preserve">
<g id="BACKGROUND">
</g>
<g id="OBJECTS">
	<g>
		<path style="opacity:0.15;fill:#84A6CE;" d="M335.17,350.179l147.203,16.677c162.189-15.299,164.99-158.994,153.764-188.847
			c-38.49-102.352-143.662-56.907-167.542-53.399c-45.003,6.612-99.969-8.269-151.788-34.66
			c-51.819-26.391-144.292-29.163-187.964,39.286C85.171,197.686,115.54,353.071,270.982,355.78L335.17,350.179z"/>
		<path style="opacity:0.21;fill:#84A6CE;" d="M341.895,342.17l122.317,16.061c157.964-12.975,137.099-134.319,127.771-159.125
			C560,114.058,472.607,151.82,452.764,154.735c-37.395,5.494-83.069-6.871-126.127-28.801
			c-43.059-21.93-119.898-24.233-156.188,32.645s-11.055,185.994,118.109,188.245L341.895,342.17z"/>
		<path style="opacity:0.2;fill:#84A6CE;" d="M649.876,390.854c6.867-2.076,10.552-4.259,10.552-6.513
			c0-13.773-136.835-24.938-305.631-24.938S49.167,370.569,49.167,384.342c0,6.162,27.407,11.801,72.797,16.153
			c-11.897,3.758-18.392,7.815-18.392,12.046c0,19.43,136.835,35.182,305.631,35.182s305.631-15.751,305.631-35.182
			C714.833,404.359,690.569,396.83,649.876,390.854z"/>
		<path style="opacity:0.22;fill:#84A6CE;" d="M580.528,392.43c5.162-1.214,7.931-2.491,7.931-3.809
			c0-8.054-102.852-14.583-229.726-14.583s-229.726,6.529-229.726,14.583c0,3.603,20.6,6.901,54.718,9.446
			c-8.942,2.198-13.824,4.57-13.824,7.044c0,11.362,102.852,20.573,229.726,20.573s229.726-9.211,229.726-20.573
			C629.353,400.327,611.115,395.924,580.528,392.43z"/>
		<path style="fill:none;stroke:#84A6CE;stroke-width:1.538;stroke-miterlimit:10;stroke-dasharray:7.6897,9.7152;" d="
			M405.615,89.324c45.249,34.574,104.301,86.719,140.846,146.276"/>
		<g>
			<path style="fill:#56CBB7;" d="M575.531,107.462c10.011-0.36,19.946,2.911,27.459,9.536c7.021,6.191,14.484,21.938,9.099,34.152
				c-10.77,24.428-36.02,27.935-54.061,37.928c-18.041,9.993-19.048,20.124-7.182,15.382c12.154-4.857,37.18-23.511,46.058-5.888
				c12.148,24.116-21.852,37.386-41.674,42.856c-25.525,7.044-44.994,20.107-33.376,21.93c11.617,1.823,29.227-11.699,41.339,0.341
				c12.112,12.04,9.388,32.949-22.635,41.406c-32.023,8.456-33.375,22.395-19.911,20.496c13.464-1.898,20.863-12.603,30.66,1.766
				c9.797,14.369-15.714,26.057-38.463,29.377c-22.749,3.319-51.005,28.95-51.005,28.95s-14.572-58.015-15.162-99.816
				C446.109,245.671,476.682,111.021,575.531,107.462z"/>
			<path style="opacity:0.34;fill:#56CBB7;" d="M561.364,146.586l38.351-13.874l-32.674,8.974
				c20.394-17.048,35.948-24.687,35.948-24.687c-7.513-6.625-17.449-9.897-27.459-9.536
				c-98.849,3.559-129.422,138.209-128.854,178.417c0.59,41.801,15.162,99.816,15.162,99.816c-0.645-2.756-0.27-21.698,4.021-48.552
				l32.848-19.832l-32.24,16.139c1.235-7.314,2.754-15.158,4.614-23.38l57.424-34.671l-55.848,27.957
				c2.065-8.494,4.491-17.328,7.335-26.346l26.067-15.738l-25.043,12.536c3.009-9.265,6.462-18.701,10.416-28.138l79.101-33.6
				l-73.589,21.17c1.823-3.891,3.732-7.77,5.74-11.624c1.913-3.67,3.894-7.202,5.908-10.659l26.12-12.933l-24.227,9.695
				c5.531-9.19,11.371-17.587,17.317-25.262l59.294-21.451l-53.992,14.829C542.68,164.265,552.365,154.561,561.364,146.586z"/>
		</g>
		<g>
			<path style="fill:#56CBB7;" d="M133.018,184.714c-7.72,1.701-14.666,6.162-19.099,12.708c-4.143,6.117-6.736,19.622-0.21,27.892
				c13.051,16.539,33.037,14.233,48.795,18.307c15.758,4.074,18.527,11.616,8.525,10.335c-10.246-1.312-33.051-10.625-36.355,4.594
				c-4.522,20.825,24.078,24.253,40.303,24.519c20.894,0.343,38.349,6.481,29.832,10.167c-8.517,3.686-24.641-3.169-31.519,8.422
				c-6.878,11.591-0.669,27.03,25.47,27.169s29.923,10.523,19.26,11.73c-10.662,1.208-18.43-5.511-23.079,7.402
				c-4.649,12.914,17.151,16.808,35.189,14.853c18.038-1.955,44.688,12.051,44.688,12.051s-0.319-47.206-8.12-79.262
				C259.193,264.767,209.25,167.919,133.018,184.714z"/>
			<path style="opacity:0.34;fill:#56CBB7;" d="M151.566,211.811l-32.043-3.03l26.737,0.407c-18.948-9-32.342-11.766-32.342-11.766
				c4.433-6.545,11.379-11.007,19.099-12.708c76.232-16.795,126.175,80.053,133.679,110.888c7.802,32.056,8.12,79.262,8.12,79.262
				c-0.051-2.233-4.078-16.632-12.657-36.304l-29.014-8.669l27.82,5.967c-2.387-5.345-5.097-11.038-8.141-16.954l-50.722-15.155
				l48.192,10.336c-3.255-6.083-6.853-12.353-10.806-18.683l-23.024-6.879l21.609,4.635c-4.128-6.485-8.629-13.013-13.514-19.444
				l-67.074-10.057l60.408,1.648c-2.161-2.613-4.385-5.2-6.681-7.749c-2.186-2.427-4.397-4.734-6.618-6.978l-22.511-4.725
				l20.426,2.625c-6.04-5.93-12.16-11.193-18.219-15.884l-49.541-4.684l44.183,0.672
				C169.333,221.631,160.017,216.128,151.566,211.811z"/>
		</g>
		<g>
			<path style="fill:#1B9B82;" d="M188.78,108.115c-6.14-0.313-12.267,1.604-16.938,5.6c-4.365,3.735-9.09,13.33-5.897,20.874
				c6.385,15.09,21.848,17.473,32.827,23.771c10.979,6.298,11.504,12.524,4.266,9.505c-7.414-3.092-22.6-14.769-28.21-4.036
				c-7.676,14.688,13.066,23.143,25.18,26.682c15.599,4.557,27.426,12.752,20.28,13.764s-17.828-7.448-25.371-0.17
				c-7.543,7.277-6.064,20.133,13.51,25.617c19.574,5.483,20.275,14.049,12.03,12.761c-8.245-1.288-12.687-7.926-18.831,0.802
				c-6.144,8.728,9.404,16.135,23.334,18.381c13.93,2.246,31.034,18.234,31.034,18.234s9.475-35.468,10.221-61.114
				C266.932,194.117,249.407,111.207,188.78,108.115z"/>
			<path style="opacity:0.34;fill:#56CBB7;" d="M197.115,132.254l-23.407-8.866l19.968,5.807
				c-12.359-10.649-21.833-15.48-21.833-15.48c4.671-3.997,10.798-5.913,16.938-5.6c60.627,3.092,78.152,86.001,77.435,110.67
				c-0.746,25.646-10.221,61.114-10.221,61.114c0.421-1.685,0.365-13.313-2.022-29.831l-19.975-12.472l19.636,10.2
				c-0.691-4.5-1.551-9.327-2.617-14.39l-34.921-21.803l34.015,17.669c-1.19-5.232-2.597-10.675-4.259-16.235l-15.851-9.897
				l15.252,7.923c-1.762-5.713-3.794-11.535-6.134-17.363l-48.233-21.345l44.964,13.667c-1.083-2.404-2.219-4.802-3.416-7.186
				c-1.14-2.27-2.324-4.455-3.527-6.595l-15.91-8.176l14.778,6.172c-3.31-5.69-6.816-10.897-10.395-15.661l-36.189-13.708
				l32.997,9.596C208.418,143.275,202.564,137.231,197.115,132.254z"/>
		</g>
		<g>
			<g>
				<rect x="448.426" y="154.341" style="fill:#DAD9DB;" width="54.854" height="240.176"/>
				<rect x="448.682" y="153.7" style="fill:#BF3B4E;" width="54.597" height="3.076"/>
				<g>
					<rect x="222.507" y="154.462" style="fill:#F8F6FB;" width="258.813" height="239.738"/>
					<rect x="222.263" y="153.628" style="fill:#FF4F68;" width="259.006" height="37.735"/>
				</g>
				<g>
					<rect x="222.507" y="154.462" style="fill:#F8F6FB;" width="258.813" height="239.738"/>
					<rect x="222.263" y="153.628" style="fill:#FF4F68;" width="259.006" height="37.735"/>
				</g>
				<g>
					<rect x="222.507" y="154.462" style="fill:#F8F6FB;" width="258.813" height="239.738"/>
					<rect x="222.263" y="153.628" style="fill:#FF4F68;" width="259.006" height="37.735"/>
					<rect x="479.384" y="153.628" style="fill:#BF3B4E;" width="1.885" height="37.735"/>
				</g>
			</g>
			<g>
				<g>
					<path style="fill:#DAD9DB;" d="M263.311,212.877V241.5H233.72v-28.623H263.311 M264.43,211.757h-31.829v30.862h31.829V211.757
						L264.43,211.757z"/>
				</g>
				<g>
					<path style="fill:#DAD9DB;" d="M297.916,212.877V241.5h-29.591v-28.623H297.916 M299.035,211.757h-31.829v30.862h31.829
						V211.757L299.035,211.757z"/>
				</g>
				<g>
					<path style="fill:#DAD9DB;" d="M332.521,212.877V241.5H302.93v-28.623H332.521 M333.64,211.757h-31.829v30.862h31.829V211.757
						L333.64,211.757z"/>
				</g>
				<g>
					<path style="fill:#DAD9DB;" d="M367.126,212.877V241.5h-29.591v-28.623H367.126 M368.245,211.757h-31.829v30.862h31.829
						V211.757L368.245,211.757z"/>
				</g>
				<g>
					<path style="fill:#DAD9DB;" d="M402.055,212.877V241.5h-29.591v-28.623H402.055 M403.174,211.757h-31.829v30.862h31.829
						V211.757L403.174,211.757z"/>
				</g>
				<g>
					<path style="fill:#DAD9DB;" d="M436.983,212.877V241.5h-29.591v-28.623H436.983 M438.102,211.757h-31.829v30.862h31.829
						V211.757L438.102,211.757z"/>
				</g>
				<g>
					<path style="fill:#DAD9DB;" d="M471.912,212.877V241.5h-29.591v-28.623H471.912 M473.031,211.757h-31.829v30.862h31.829
						V211.757L473.031,211.757z"/>
				</g>
				<rect x="301.452" y="211.757" style="opacity:0.43;fill:#56CBB7;" width="31.829" height="30.862"/>
			</g>
			<g>
				<g>
					<path style="fill:#DAD9DB;" d="M263.311,257.187v28.623H233.72v-28.623H263.311 M264.43,256.067h-31.829v30.862h31.829V256.067
						L264.43,256.067z"/>
				</g>
				<g>
					<path style="fill:#DAD9DB;" d="M297.916,257.187v28.623h-29.591v-28.623H297.916 M299.035,256.067h-31.829v30.862h31.829
						V256.067L299.035,256.067z"/>
				</g>
				<g>
					<path style="fill:#DAD9DB;" d="M332.521,257.187v28.623H302.93v-28.623H332.521 M333.64,256.067h-31.829v30.862h31.829V256.067
						L333.64,256.067z"/>
				</g>
				<g>
					<path style="fill:#DAD9DB;" d="M367.126,257.187v28.623h-29.591v-28.623H367.126 M368.245,256.067h-31.829v30.862h31.829
						V256.067L368.245,256.067z"/>
				</g>
				<g>
					<path style="fill:#DAD9DB;" d="M402.055,257.187v28.623h-29.591v-28.623H402.055 M403.174,256.067h-31.829v30.862h31.829
						V256.067L403.174,256.067z"/>
				</g>
				<g>
					<path style="fill:#DAD9DB;" d="M436.983,257.187v28.623h-29.591v-28.623H436.983 M438.102,256.067h-31.829v30.862h31.829
						V256.067L438.102,256.067z"/>
				</g>
				<g>
					<path style="fill:#DAD9DB;" d="M471.912,257.187v28.623h-29.591v-28.623H471.912 M473.031,256.067h-31.829v30.862h31.829
						V256.067L473.031,256.067z"/>
				</g>
			</g>
			<g>
				<g>
					<path style="fill:#DAD9DB;" d="M263.311,301.496v28.623H233.72v-28.623H263.311 M264.43,300.377h-31.829v30.862h31.829V300.377
						L264.43,300.377z"/>
				</g>
				<g>
					<path style="fill:#DAD9DB;" d="M297.916,301.496v28.623h-29.591v-28.623H297.916 M299.035,300.377h-31.829v30.862h31.829
						V300.377L299.035,300.377z"/>
				</g>
				<g>
					<path style="fill:#DAD9DB;" d="M332.521,301.496v28.623H302.93v-28.623H332.521 M333.64,300.377h-31.829v30.862h31.829V300.377
						L333.64,300.377z"/>
				</g>
				<g>
					<path style="fill:#DAD9DB;" d="M367.126,301.496v28.623h-29.591v-28.623H367.126 M368.245,300.377h-31.829v30.862h31.829
						V300.377L368.245,300.377z"/>
				</g>
				<g>
					<path style="fill:#DAD9DB;" d="M402.055,301.496v28.623h-29.591v-28.623H402.055 M403.174,300.377h-31.829v30.862h31.829
						V300.377L403.174,300.377z"/>
				</g>
				<g>
					<path style="fill:#DAD9DB;" d="M436.983,301.496v28.623h-29.591v-28.623H436.983 M438.102,300.377h-31.829v30.862h31.829
						V300.377L438.102,300.377z"/>
				</g>
				<g>
					<path style="fill:#DAD9DB;" d="M471.912,301.496v28.623h-29.591v-28.623H471.912 M473.031,300.377h-31.829v30.862h31.829
						V300.377L473.031,300.377z"/>
				</g>
			</g>
			<g>
				<g>
					<path style="fill:#DAD9DB;" d="M263.311,345.806v28.623H233.72v-28.623H263.311 M264.43,344.687h-31.829v30.862h31.829V344.687
						L264.43,344.687z"/>
				</g>
				<g>
					<path style="fill:#DAD9DB;" d="M297.916,345.806v28.623h-29.591v-28.623H297.916 M299.035,344.687h-31.829v30.862h31.829
						V344.687L299.035,344.687z"/>
				</g>
				<g>
					<path style="fill:#DAD9DB;" d="M332.521,345.806v28.623H302.93v-28.623H332.521 M333.64,344.687h-31.829v30.862h31.829V344.687
						L333.64,344.687z"/>
				</g>
				<g>
					<path style="fill:#DAD9DB;" d="M367.126,345.806v28.623h-29.591v-28.623H367.126 M368.245,344.687h-31.829v30.862h31.829
						V344.687L368.245,344.687z"/>
				</g>
				<g>
					<path style="fill:#DAD9DB;" d="M436.983,345.806v28.623h-29.591v-28.623H436.983 M438.102,344.687h-31.829v30.862h31.829
						V344.687L438.102,344.687z"/>
				</g>
				<g>
					<path style="fill:#DAD9DB;" d="M471.912,345.806v28.623h-29.591v-28.623H471.912 M473.031,344.687h-31.829v30.862h31.829
						V344.687L473.031,344.687z"/>
				</g>
				<g>
					<path style="fill:#DAD9DB;" d="M402.055,345.806v28.623h-29.591v-28.623H402.055 M403.174,344.687h-31.829v30.862h31.829
						V344.687L403.174,344.687z"/>
				</g>
			</g>
		</g>
		<rect x="302.042" y="301.163" style="opacity:0.43;fill:#56CBB7;" width="31.829" height="30.862"/>
		<rect x="370.224" y="345.251" style="opacity:0.5;fill:#FF4F68;" width="31.829" height="30.862"/>
		<rect x="370.737" y="255.691" style="opacity:0.5;fill:#FF4F68;" width="31.829" height="30.862"/>
		<path style="fill:#DAD9DB;" d="M552.478,376.647c-0.093-0.726-0.208-1.447-0.346-2.162c-0.413-2.144-1.024-4.234-1.821-6.244
			c-1.328-3.351-3.17-6.481-5.461-9.277c-2.29-2.796-5.029-5.258-8.151-7.272c-0.529-0.341-1.096-0.695-1.646-1.043h0
			c-6.504-4.118-14.399-8.644-23.042-12.615v-4.668c0.436,0.28,0.875,0.555,1.303,0.847l11.987,8.164l6.545,4.458
			c7.719,5.258,18.174-0.271,18.174-9.611v-0.637c0,0,0-0.001,0-0.001v-6.408c0,0.001,0,0.001,0,0.001v-8.07
			c0-1.637-0.605-3.205-1.717-4.406c-5.628-6.073-26.276-23.458-78.373-24.679v-0.035c-0.206,0.004-0.402,0.013-0.607,0.017
			c-0.205-0.004-0.401-0.014-0.607-0.017v0.035c-52.097,1.22-72.745,18.606-78.373,24.679c-1.113,1.201-1.717,2.769-1.717,4.406
			v8.068v6.408v0.639c0,3.868,1.807,7.064,4.457,9.129l-3.801,3.732c-2.616,2.568-6.192,3.758-9.555,3.179
			c-2.682-0.451-6.315-0.061-8.396,4.447c-0.796,1.726-1.019,3.234-0.887,4.534c-2.426,0.225-4.91,1.216-6.805,3.674
			c-3.223,4.18-3.062,8.556,0.454,12.325c0.878,0.94,1.947,1.798,3.119,2.544c-1.606,1.042-2.968,2.523-3.805,4.543
			c-1.69,4.079-0.527,6.898,0.746,8.544c0.289,0.374,0.611,0.721,0.957,1.042c-1.987,1.894-3.139,4.241-3.36,6.467
			c-0.413,4.168,2.21,7.586,7.016,9.145c0.273,0.089,0.545,0.171,0.816,0.249c-0.368,0.478-0.638,0.972-0.786,1.478
			c-0.398,1.359-0.107,3.313,3.532,4.905c1.764,0.772,3.768,1.09,5.877,1.09c9.762,0,21.751-6.831,22.362-7.182l-0.736-1.28
			c1.196-0.088,2.44-0.164,3.724-0.164h65.836h1.538h65.836c8.834,0,15.995-7.161,15.995-15.995v-12.574v0
			C552.758,379.572,552.663,378.099,552.478,376.647z M505.475,335.212c-11.078-4.485-23.013-7.739-34.548-7.862v-0.023
			c-0.255-0.003-0.513,0.012-0.769,0.012c-0.256,0-0.514-0.015-0.769-0.012v0.023c-11.441,0.122-23.273,3.326-34.275,7.753v-6.132
			c0.642-0.288,1.299-0.54,1.95-0.809c0.749-0.31,1.492-0.631,2.252-0.915c0.188-0.07,0.377-0.143,0.565-0.212
			c1.207-0.441,2.4-0.854,3.58-1.238c0.236-0.077,0.468-0.147,0.702-0.221c1.034-0.328,2.058-0.635,3.071-0.921
			c0.221-0.062,0.444-0.129,0.664-0.189c1.145-0.314,2.275-0.6,3.391-0.863c0.248-0.058,0.493-0.112,0.74-0.167
			c0.995-0.225,1.979-0.432,2.951-0.617c0.165-0.032,0.333-0.068,0.498-0.098c1.087-0.201,2.157-0.374,3.215-0.528
			c0.247-0.036,0.491-0.069,0.736-0.102c0.978-0.134,1.946-0.252,2.899-0.348c0.098-0.01,0.198-0.023,0.295-0.032
			c1.028-0.099,2.037-0.172,3.035-0.23c0.24-0.014,0.478-0.026,0.715-0.038c0.996-0.049,1.984-0.085,2.95-0.095
			c1.153,0.012,2.333,0.059,3.529,0.126c0.162,0.009,0.322,0.016,0.485,0.026c1.143,0.072,2.308,0.174,3.489,0.3
			c0.215,0.023,0.43,0.046,0.646,0.071c1.181,0.136,2.38,0.299,3.599,0.493c0.201,0.032,0.405,0.068,0.607,0.102
			c1.264,0.211,2.544,0.447,3.848,0.725c0.1,0.021,0.202,0.047,0.302,0.068c1.294,0.28,2.608,0.597,3.94,0.947
			c0.133,0.035,0.263,0.066,0.397,0.101c1.334,0.357,2.692,0.759,4.065,1.19c0.233,0.073,0.465,0.145,0.698,0.22
			c1.348,0.435,2.716,0.908,4.1,1.418c0.247,0.091,0.496,0.186,0.745,0.279c1.412,0.532,2.84,1.098,4.29,1.713
			c0.152,0.064,0.306,0.134,0.458,0.2c0.321,0.139,0.636,0.291,0.954,0.438V335.212z M372.942,415.754
			c-2.099-0.919-2.999-1.949-2.673-3.064c0.146-0.5,0.488-1.005,0.975-1.497c6.622,1.392,12.173-0.392,14.071-2.29
			c0.888-0.888,0.814-1.654,0.692-2.031c-0.249-0.764-1.042-1.259-2.354-1.466c-3.271-0.505-9.533,1.352-12.832,4.109
			c-0.523-0.126-1.05-0.275-1.581-0.447c-4.13-1.34-6.302-4.084-5.96-7.531c0.193-1.949,1.238-4.01,3.047-5.662
			c2.524,1.688,5.812,2.304,8.23,1.971c4.675-0.65,7.423-2.274,7.172-4.237c-0.26-2.035-3.504-2.989-8.276-2.435
			c-2.892,0.338-5.297,1.356-7.161,2.746c-0.337-0.299-0.647-0.628-0.924-0.985c-1.489-1.925-1.672-4.286-0.541-7.014
			c0.835-2.016,2.281-3.367,3.921-4.246c4.034,2.107,8.731,2.909,10.948,1.43c1.233-0.822,1.218-1.687,1.1-2.13
			c-0.388-1.454-2.797-2.121-4.921-2.26c-2.206-0.141-4.813,0.182-7.131,1.236c-1.294-0.749-2.513-1.67-3.527-2.756
			c-2.081-2.229-3.832-5.832-0.36-10.335c1.624-2.106,3.805-2.915,5.929-3.071c0.909,2.606,3.219,4.124,4.217,4.677
			c2.374,1.311,4.13,0.644,4.818-0.598c0.674-1.22,0.348-3.047-1.365-3.997c-1.18-0.653-3.677-1.583-6.45-1.67
			c-0.135-1.093,0.04-2.37,0.722-3.843c1.343-2.909,3.61-4.114,6.74-3.576c3.853,0.658,7.924-0.685,10.892-3.6l4.021-3.948
			c3.642,2.133,8.397,2.341,12.421-0.399l14.179-9.657l2.359-1.607c1.699-1.157,3.457-2.222,5.239-3.242v5.578
			c-9.483,4.336-18.104,9.362-24.961,13.786c-9.989,6.445-16.059,17.478-16.059,29.366v12.574c0,4.729,2.065,8.965,5.327,11.894
			h-1.635c-1.095,0-2.164-0.111-3.197-0.321c1.428,5.714,5.919,5.024,11.631,4.596C398.215,410.624,381.794,419.622,372.942,415.754
			z M372.863,409.91c3.02-1.958,7.869-3.42,10.549-2.984c0.957,0.15,1.128,0.416,1.13,0.416c0.003,0.052-0.098,0.339-0.641,0.757
			C382.137,409.452,377.87,410.634,372.863,409.91z M367.596,394.873c1.603-1.092,3.628-1.889,6.035-2.17
			c4.417-0.517,6.492,0.478,6.572,1.099c0.074,0.584-1.567,1.924-5.859,2.52C372.363,396.595,369.715,396.142,367.596,394.873z
			 M370.602,380.891c1.979-0.641,4.014-0.754,5.467-0.62c2.181,0.195,3.188,0.858,3.24,1.093c-0.006,0.042-0.104,0.218-0.467,0.46
			C377.473,382.734,373.998,382.381,370.602,380.891z M372.456,363.789c2.367,0.167,4.437,0.973,5.255,1.427
			c0.872,0.482,1.073,1.349,0.764,1.906c-0.388,0.701-1.459,0.698-2.727-0.003C374.805,366.598,373.246,365.521,372.456,363.789z"/>
		<g>
			<path style="fill:none;stroke:#261F27;stroke-width:1.538;stroke-miterlimit:10;" d="M411.855,339.568l-11.269,11.064
				c-2.7,2.651-6.495,4.03-10.224,3.391c-2.649-0.454-5.752,0.076-7.568,4.011c-2.388,5.173,0.795,8.346,3.346,9.758
				c3.894,2.154,5.251-1.839,2.708-3.248c-1.584-0.877-9.445-3.849-13.835,1.845c-8.433,10.936,10.48,19.102,15.021,16.075
				c4.541-3.027-11.332-6.061-15.153,3.162c-3.408,8.225,5.098,12.187,10.335,11.458c9.43-1.312,8.21-6.21-0.908-5.146
				c-11.403,1.331-15.741,14.228-4.541,17.86c11.201,3.633,20.282-2.724,14.53-3.633c-5.752-0.908-20.585,6.054-10.898,10.292
				c9.687,4.238,27.547-6.054,27.547-6.054"/>
			<path style="fill:#F4CB00;" d="M559.069,317.702c-5.628-6.073-26.276-23.458-78.373-24.679v-0.035
				c-0.206,0.004-0.402,0.013-0.607,0.017c-0.205-0.004-0.401-0.014-0.607-0.017v0.035c-52.097,1.22-72.745,18.606-78.373,24.679
				c-1.113,1.201-1.717,2.769-1.717,4.406v15.115c0,9.34,10.455,14.868,18.174,9.611l22.478-15.309
				c15.308-7.37,28.7-10.057,40.045-10.178c11.346,0.121,24.737,2.808,40.045,10.178l22.478,15.309
				c7.719,5.258,18.174-0.271,18.174-9.611v-15.115C560.786,320.471,560.181,318.902,559.069,317.702z"/>
			<path style="opacity:0.3;fill:#F4CB00;" d="M559.069,317.702c-5.628-6.073-26.276-23.458-78.373-24.679v-0.035
				c-0.206,0.004-0.402,0.013-0.607,0.017c-0.205-0.004-0.401-0.014-0.607-0.017v0.035c-52.097,1.22-72.745,18.606-78.373,24.679
				c-1.113,1.201-1.717,2.769-1.717,4.406v14.477c0,9.611,10.758,15.3,18.702,9.89l16.01-10.904
				c5.059-3.446,10.506-6.314,16.249-8.433c11.082-4.088,21.014-5.698,29.736-5.791c10.06,0.107,21.73,2.232,34.917,7.851
				c3.184,1.357,6.213,3.066,9.074,5.015l18.004,12.262c7.944,5.41,18.702-0.279,18.702-9.89v-14.477
				C560.786,320.471,560.181,318.902,559.069,317.702z"/>
			<path style="opacity:0.3;fill:#F4CB00;" d="M559.069,317.702c-1.606-1.732-4.44-4.386-8.871-7.322
				c0.547,0.527,1.023,1.012,1.417,1.437c1.113,1.201,1.717,2.769,1.717,4.406V330.7c0,3.872-0.342,6.988-3.394,9.153
				c-2.318,1.645-5.453,1.829-7.812,0.242c-0.014-0.009-0.028-0.019-0.042-0.029l-18.004-12.262c-3.048-2.076-6.299-3.854-9.7-5.28
				c-12.931-5.421-24.39-7.481-34.291-7.586c-2.676,0.028-5.468,0.201-8.37,0.543c-8.492,0.192-18.104,1.822-28.789,5.76
				c-5.755,2.121-11.211,4.992-16.28,8.444l-16.009,10.904c-0.718,0.489-1.461,0.877-2.214,1.189
				c-4.973-1.28-9.034-5.699-9.034-11.603v6.408c0,2.522,0.746,4.77,1.983,6.623c0.046,0.069,0.092,0.137,0.139,0.205
				c0.208,0.298,0.426,0.587,0.659,0.862c0.03,0.036,0.063,0.069,0.094,0.105c0.216,0.249,0.441,0.487,0.676,0.716
				c0.054,0.053,0.106,0.106,0.161,0.158c0.259,0.245,0.528,0.478,0.807,0.698c0.055,0.043,0.111,0.083,0.166,0.125
				c0.255,0.194,0.516,0.378,0.785,0.551c0.05,0.032,0.098,0.066,0.148,0.098c0.302,0.188,0.612,0.361,0.929,0.522
				c0.071,0.036,0.143,0.07,0.214,0.105c0.305,0.148,0.615,0.286,0.931,0.408c0.026,0.01,0.051,0.022,0.078,0.032
				c0.336,0.127,0.679,0.234,1.025,0.331c0.081,0.022,0.161,0.044,0.242,0.065c0.349,0.09,0.701,0.169,1.058,0.227
				c0.028,0.005,0.057,0.007,0.085,0.011c0.336,0.052,0.676,0.087,1.017,0.111c0.081,0.006,0.162,0.012,0.243,0.016
				c0.359,0.017,0.72,0.02,1.083,0.004c0.062-0.003,0.124-0.009,0.185-0.013c0.325-0.02,0.65-0.054,0.976-0.101
				c0.072-0.011,0.143-0.018,0.215-0.03c0.362-0.06,0.723-0.138,1.084-0.233c0.078-0.021,0.155-0.045,0.233-0.067
				c0.329-0.094,0.658-0.202,0.983-0.328c0.048-0.018,0.096-0.034,0.145-0.053c0.357-0.143,0.71-0.309,1.06-0.49
				c0.082-0.042,0.163-0.087,0.245-0.131c0.354-0.194,0.706-0.4,1.051-0.635c0.001,0,0.002-0.001,0.002-0.001l16.01-10.904
				c1.023-0.697,2.066-1.363,3.119-2.011c0.627-0.385,1.259-0.762,1.897-1.129c3.591-2.07,7.342-3.857,11.233-5.293
				c4.696-1.732,9.183-3.015,13.461-3.931c0.243-0.052,0.486-0.104,0.728-0.154c1.683-0.345,3.333-0.634,4.949-0.869
				c1.298-0.189,2.576-0.346,3.83-0.469c1.165-0.114,2.312-0.201,3.44-0.261c1.128-0.061,2.237-0.096,3.327-0.108
				c1.258,0.013,2.54,0.058,3.848,0.138c9.153,0.555,19.53,2.797,31.069,7.713c1.592,0.678,3.145,1.445,4.658,2.285
				c1.513,0.841,2.985,1.755,4.416,2.729l9.002,6.131l9.002,6.131c0.993,0.676,2.03,1.179,3.084,1.523
				c0.264,0.086,0.528,0.162,0.794,0.228c1.561,0.389,3.145,0.438,4.669,0.198c0.289-0.046,0.577-0.099,0.861-0.166
				c0.254-0.06,0.507-0.127,0.757-0.203c0.999-0.303,1.956-0.734,2.843-1.278c1.11-0.681,2.113-1.539,2.956-2.549
				c1.181-1.413,2.05-3.121,2.465-5.049c0.059-0.275,0.109-0.555,0.15-0.839c0.081-0.568,0.123-1.154,0.123-1.754l0,0v-11.408
				v-3.069C560.786,320.471,560.181,318.902,559.069,317.702z"/>
			<g>
				<path style="fill:#F4CB00;" d="M481.692,327.35v-0.023c-0.255-0.003-0.513,0.012-0.769,0.012c-0.256,0-0.514-0.015-0.769-0.012
					v0.023c-23.969,0.256-49.695,13.969-65.772,24.341c-9.989,6.445-16.059,17.478-16.059,29.366v12.574
					c0,8.834,7.161,15.995,15.995,15.995h65.836h1.538h65.836c8.834,0,15.995-7.161,15.995-15.995v-12.574
					c0-11.888-6.07-22.921-16.059-29.366C531.388,341.319,505.661,327.606,481.692,327.35z"/>
				<g>
					<path style="fill:#F4CB00;" d="M442.611,343.904L442.611,343.904c-1.805,0-3.268-1.463-3.268-3.268v-19.609
						c0-1.805,1.463-3.268,3.268-3.268l0,0c1.805,0,3.268,1.463,3.268,3.268v19.609
						C445.879,342.441,444.416,343.904,442.611,343.904z"/>
					<path style="fill:#F4CB00;" d="M519.509,343.904L519.509,343.904c-1.805,0-3.268-1.463-3.268-3.268v-19.609
						c0-1.805,1.463-3.268,3.268-3.268l0,0c1.805,0,3.268,1.463,3.268,3.268v19.609
						C522.777,342.441,521.313,343.904,519.509,343.904z"/>
				</g>
				<circle style="opacity:0.76;fill:#F4CB00;" cx="483.803" cy="368.793" r="31.455"/>
			</g>
			<path style="opacity:0.3;fill:#F4CB00;" d="M463.288,343.741c-2.956,0-5.353,2.397-5.353,5.353c0,1.872,0.964,3.514,2.42,4.471
				c-0.554-0.843-0.882-1.849-0.882-2.933c0-2.956,2.397-5.353,5.353-5.353c1.084,0,2.09,0.328,2.933,0.882
				C466.803,344.705,465.16,343.741,463.288,343.741z"/>
			<path style="opacity:0.3;fill:#F4CB00;" d="M473.701,338.019c-2.956,0-5.353,2.397-5.353,5.353c0,1.872,0.964,3.514,2.42,4.471
				c-0.554-0.843-0.882-1.849-0.882-2.933c0-2.956,2.397-5.353,5.353-5.353c1.084,0,2.09,0.328,2.933,0.882
				C477.216,338.983,475.573,338.019,473.701,338.019z"/>
			<path style="opacity:0.3;fill:#F4CB00;" d="M485.428,338.019c-2.956,0-5.353,2.397-5.353,5.353c0,1.872,0.964,3.514,2.42,4.471
				c-0.554-0.843-0.882-1.849-0.882-2.933c0-2.956,2.397-5.353,5.353-5.353c1.084,0,2.09,0.328,2.933,0.882
				C488.942,338.983,487.3,338.019,485.428,338.019z"/>
			<path style="opacity:0.3;fill:#F4CB00;" d="M495.278,343.366c-2.956,0-5.353,2.397-5.353,5.353c0,1.872,0.964,3.514,2.42,4.471
				c-0.554-0.843-0.882-1.849-0.882-2.933c0-2.956,2.397-5.353,5.353-5.353c1.084,0,2.09,0.328,2.933,0.882
				C498.792,344.33,497.15,343.366,495.278,343.366z"/>
			<path style="opacity:0.3;fill:#F4CB00;" d="M458.129,353.685c-2.956,0-5.353,2.397-5.353,5.353c0,1.872,0.964,3.514,2.42,4.471
				c-0.554-0.843-0.882-1.849-0.882-2.933c0-2.956,2.397-5.353,5.353-5.353c1.084,0,2.09,0.328,2.933,0.882
				C461.643,354.649,460.001,353.685,458.129,353.685z"/>
			<path style="opacity:0.3;fill:#F4CB00;" d="M464.227,375.355c-2.956,0-5.353,2.396-5.353,5.353c0,1.872,0.964,3.515,2.42,4.471
				c-0.554-0.843-0.882-1.849-0.882-2.933c0-2.956,2.397-5.353,5.353-5.353c1.084,0,2.09,0.328,2.933,0.882
				C467.741,376.319,466.099,375.355,464.227,375.355z"/>
			<path style="opacity:0.3;fill:#F4CB00;" d="M474.733,381.171c-2.956,0-5.353,2.396-5.353,5.353c0,1.872,0.964,3.514,2.42,4.471
				c-0.554-0.843-0.882-1.849-0.882-2.933c0-2.956,2.397-5.353,5.353-5.353c1.084,0,2.09,0.328,2.933,0.882
				C478.248,382.135,476.605,381.171,474.733,381.171z"/>
			<path style="opacity:0.3;fill:#F4CB00;" d="M486.272,381.171c-2.956,0-5.353,2.396-5.353,5.353c0,1.872,0.964,3.514,2.42,4.471
				c-0.554-0.843-0.882-1.849-0.882-2.933c0-2.956,2.397-5.353,5.353-5.353c1.084,0,2.09,0.328,2.933,0.882
				C489.786,382.135,488.144,381.171,486.272,381.171z"/>
			<path style="opacity:0.3;fill:#F4CB00;" d="M495.747,374.417c-2.956,0-5.353,2.396-5.353,5.353c0,1.872,0.964,3.514,2.42,4.471
				c-0.554-0.843-0.882-1.849-0.882-2.933c0-2.956,2.397-5.353,5.353-5.353c1.084,0,2.09,0.328,2.933,0.882
				C499.261,375.381,497.619,374.417,495.747,374.417z"/>
			<path style="opacity:0.3;fill:#F4CB00;" d="M458.035,365.505c-2.956,0-5.353,2.397-5.353,5.353c0,1.872,0.964,3.514,2.42,4.471
				c-0.554-0.843-0.882-1.849-0.882-2.933c0-2.956,2.397-5.353,5.353-5.353c1.084,0,2.09,0.328,2.933,0.882
				C461.549,366.469,459.907,365.505,458.035,365.505z"/>
			<g>
				<path style="fill:#F8F6FB;" d="M480.665,333.942c-17.665,0-31.986,13.845-31.986,30.923s14.321,30.923,31.986,30.923
					c17.665,0,31.986-13.845,31.986-30.923S498.33,333.942,480.665,333.942z M495.619,343.555c2.956,0,5.353,2.397,5.353,5.353
					c0,2.956-2.397,5.353-5.353,5.353c-2.956,0-5.353-2.397-5.353-5.353C490.266,345.951,492.662,343.555,495.619,343.555z
					 M469.308,340.897c1.478-2.56,4.752-3.438,7.312-1.959c2.56,1.478,3.438,4.752,1.959,7.312c-1.478,2.56-4.752,3.438-7.312,1.959
					C468.707,346.732,467.829,343.458,469.308,340.897z M464.057,344.202c2.956,0,5.353,2.397,5.353,5.353
					c0,2.956-2.397,5.353-5.353,5.353s-5.353-2.397-5.353-5.353C458.704,346.599,461.101,344.202,464.057,344.202z M455.81,355.043
					c2.56-1.478,5.834-0.601,7.312,1.959c1.478,2.56,0.601,5.834-1.959,7.312c-2.56,1.478-5.834,0.601-7.312-1.959
					C452.372,359.795,453.25,356.521,455.81,355.043z M456.047,375.867c-2.56-1.478-3.437-4.752-1.959-7.312
					c1.478-2.56,4.752-3.438,7.312-1.959c2.56,1.478,3.438,4.752,1.959,7.312C461.881,376.468,458.607,377.345,456.047,375.867z
					 M464.705,386.47c-2.956,0-5.353-2.397-5.353-5.353s2.397-5.353,5.353-5.353c2.956,0,5.353,2.397,5.353,5.353
					S467.662,386.47,464.705,386.47z M477.505,391.324c-2.56,1.478-5.834,0.601-7.312-1.959c-1.478-2.56-0.601-5.834,1.959-7.312
					c2.56-1.478,5.834-0.601,7.312,1.959C480.942,386.572,480.065,389.845,477.505,391.324z M482.819,338.701
					c2.56-1.478,5.834-0.601,7.312,1.959c1.478,2.56,0.601,5.834-1.959,7.312c-2.56,1.478-5.834,0.601-7.312-1.959
					C479.382,343.453,480.259,340.179,482.819,338.701z M491.016,389.127c-1.478,2.56-4.752,3.438-7.312,1.959
					c-2.56-1.478-3.438-4.752-1.96-7.312c1.478-2.56,4.752-3.437,7.312-1.959C491.617,383.293,492.495,386.567,491.016,389.127z
					 M496.267,385.822c-2.956,0-5.353-2.397-5.353-5.353c0-2.956,2.397-5.353,5.353-5.353s5.353,2.397,5.353,5.353
					C501.62,383.426,499.223,385.822,496.267,385.822z"/>
				<g>
					<g>
						<path style="fill:#C0BFC1;" d="M469.308,340.897c1.478-2.56,4.752-3.438,7.312-1.959c0.089,0.051,0.16,0.121,0.245,0.177
							c-0.445-0.68-1.031-1.28-1.783-1.715c-2.56-1.478-5.834-0.601-7.312,1.959c-1.427,2.471-0.643,5.591,1.714,7.136
							C468.415,344.859,468.264,342.706,469.308,340.897z"/>
						<path style="fill:#C0BFC1;" d="M454.264,374.152c-1.069-1.636-1.22-3.79-0.176-5.598c1.478-2.56,4.752-3.438,7.312-1.959
							c0.089,0.052,0.16,0.121,0.245,0.177c-0.445-0.68-1.031-1.28-1.783-1.715c-0.108-0.063-0.224-0.097-0.335-0.151
							c-1.169,0.232-2.371,0.084-3.419-0.435c-1.444,0.298-2.763,1.168-3.558,2.546
							C451.123,369.488,451.907,372.608,454.264,374.152z"/>
						<path style="fill:#C0BFC1;" d="M494.081,342.017c-1.233,0-2.354,0.434-3.259,1.134c0.057,1.687-0.681,3.336-2.075,4.408
							c0.064,1.792,0.996,3.358,2.401,4.282c-0.554-0.843-0.882-1.849-0.882-2.933c0-2.956,2.397-5.353,5.353-5.353
							c1.084,0,2.09,0.328,2.933,0.882C497.595,342.981,495.953,342.017,494.081,342.017z"/>
						<path style="fill:#C0BFC1;" d="M481.281,337.163c-1.51,0.836-2.395,2.342-2.608,3.93c0.513,0.98,0.72,2.098,0.569,3.206
							c0.031,0.058,0.047,0.119,0.079,0.177c0.434,0.752,1.034,1.339,1.715,1.783c-0.056-0.085-0.125-0.156-0.177-0.245
							c-1.478-2.56-0.601-5.834,1.959-7.312c1.808-1.044,4.835-0.612,6.565,0.878C488.327,336.935,484.818,335.205,481.281,337.163z
							"/>
						<path style="fill:#C0BFC1;" d="M462.52,342.664c-2.956,0-5.353,2.397-5.353,5.353c0,1.872,0.964,3.514,2.42,4.471
							c-0.554-0.843-0.882-1.849-0.882-2.933c0-2.956,2.397-5.353,5.353-5.353c1.084,0,2.09,0.328,2.933,0.882
							C466.034,343.629,464.391,342.664,462.52,342.664z"/>
						<path style="fill:#C0BFC1;" d="M452.313,360.817c0.434,0.752,1.034,1.339,1.715,1.783c-0.056-0.085-0.125-0.156-0.177-0.245
							c-1.478-2.56-0.601-5.834,1.959-7.313c1.808-1.044,3.962-0.893,5.598,0.176c-1.545-2.357-4.665-3.141-7.136-1.714
							C451.712,354.983,450.835,358.257,452.313,360.817z"/>
						<path style="fill:#C0BFC1;" d="M460.234,384.05c-0.554-0.843-0.882-1.849-0.882-2.933c0-2.956,2.397-5.353,5.353-5.353
							c1.084,0,2.09,0.328,2.933,0.882c-0.957-1.456-2.599-2.42-4.471-2.42c-0.014,0-0.026,0.004-0.04,0.004
							c-1.017,1.494-2.666,2.323-4.379,2.332c-0.588,0.859-0.934,1.897-0.934,3.017C457.814,381.451,458.778,383.094,460.234,384.05
							z"/>
						<path style="fill:#C0BFC1;" d="M502.753,342.534c5.177,5.494,8.36,12.775,8.36,20.793c0,17.078-14.321,30.923-31.986,30.923
							c-8.575,0-16.345-3.281-22.088-8.592c5.85,6.209,14.254,10.13,23.626,10.13c17.665,0,31.986-13.845,31.986-30.923
							C512.651,356.077,508.841,348.164,502.753,342.534z"/>
						<path style="fill:#C0BFC1;" d="M490.914,380.469c0-2.956,2.397-5.353,5.353-5.353c1.084,0,2.09,0.328,2.933,0.882
							c-0.957-1.456-2.599-2.42-4.471-2.42c-2.956,0-5.353,2.397-5.353,5.353c0,1.872,0.964,3.514,2.42,4.471
							C491.241,382.559,490.914,381.554,490.914,380.469z"/>
						<path style="fill:#C0BFC1;" d="M470.369,389.61c-0.056-0.085-0.125-0.156-0.177-0.245c-1.478-2.56-0.601-5.834,1.959-7.312
							c1.808-1.044,3.962-0.893,5.598,0.176c-1.544-2.357-4.665-3.141-7.136-1.714c-0.209,0.121-0.388,0.271-0.575,0.414
							c0.002,0.064,0.019,0.124,0.019,0.189c0,1.724-0.829,3.24-2.094,4.219c0.029,0.849,0.236,1.703,0.69,2.49
							C469.089,388.578,469.689,389.165,470.369,389.61z"/>
						<path style="fill:#C0BFC1;" d="M481.921,389.372c-1.069-1.636-1.22-3.789-0.176-5.598c1.478-2.56,4.752-3.437,7.312-1.959
							c0.089,0.052,0.16,0.121,0.245,0.177c-0.445-0.68-1.031-1.28-1.783-1.715c-2.56-1.478-5.834-0.601-7.312,1.959
							c-0.358,0.62-0.572,1.283-0.663,1.952c0.541,1.02,0.713,2.135,0.569,3.206C480.523,388.177,481.136,388.858,481.921,389.372z"
							/>
					</g>
					
						<ellipse transform="matrix(0.6463 -0.7631 0.7631 0.6463 -107.7986 494.8158)" style="fill:#261F27;" cx="479.868" cy="363.692" rx="12.304" ry="12.304"/>
				</g>
			</g>
			<path style="opacity:0.3;fill:#F4CB00;" d="M547.465,351.691c-0.529-0.341-1.096-0.695-1.646-1.043
				c3.472,5.489,5.401,11.918,5.401,18.618l0,0c0,19.942-16.317,36.259-36.259,36.259H411.242c-1.095,0-6.777-1.342-7.811-1.551
				c1.738,6.954,12.622,5.653,20.114,5.653h123.983c8.834,0,15.995-7.161,15.995-15.995v-12.574
				C563.523,369.17,557.454,358.136,547.465,351.691z"/>
		</g>
		<g>
			<polygon style="fill:#84A6CE;" points="399.992,68.765 336.257,34.278 417.833,67.36 			"/>
			<polygon style="fill:#84A6CE;" points="399.992,68.765 392.794,81.163 338.175,35.092 			"/>
			<polygon style="opacity:0.45;fill:#84A6CE;" points="399.992,68.765 392.794,81.163 338.175,35.092 			"/>
			<polygon style="fill:#84A6CE;" points="394.713,69.324 392.794,81.163 336.257,34.278 			"/>
			<polygon style="opacity:0.2;fill:#84A6CE;" points="394.713,69.324 392.794,81.163 336.257,34.278 			"/>
			<polygon style="fill:#84A6CE;" points="369.081,70.8 394.713,69.324 336.257,34.278 			"/>
		</g>
		<path style="fill:none;stroke:#84A6CE;stroke-width:1.538;stroke-miterlimit:10;stroke-dasharray:7.6897,9.7152;" d="
			M556.634,247.241c15.311,17.38,24.471,32.961,27.83,44.999c1.966,7.045,1.63,12.876-1.309,17.144
			c-15.338,22.278-95.76-6.472-179.626-64.214c-83.867-57.742-139.421-122.61-124.082-144.888
			c8.649-12.562,37.991-8.899,76.977,7.037c9.637,3.939,42.047,20.203,58.679,33.14"/>
		<g>
			<g>
				<polygon style="fill:#FF4F68;" points="148.498,319.384 92.814,304.225 161.723,313.017 				"/>
				<polygon style="fill:#FF4F68;" points="148.498,319.384 145.69,333.305 94.442,304.467 				"/>
				<polygon style="opacity:0.45;fill:#FF4F68;" points="148.498,319.384 145.69,333.305 94.442,304.467 				"/>
				<polygon style="fill:#FF4F68;" points="144.616,321.406 145.69,333.305 92.814,304.225 				"/>
				<polygon style="opacity:0.2;fill:#FF4F68;" points="144.616,321.406 145.69,333.305 92.814,304.225 				"/>
				<polygon style="fill:#FF4F68;" points="125.499,330.033 144.616,321.406 92.814,304.225 				"/>
			</g>
			<path style="fill:none;stroke:#84A6CE;stroke-width:1.538;stroke-miterlimit:10;stroke-dasharray:7.6897,9.7152;" d="
				M532.77,252.88c-31.648,79.793-209.334,114.524-374.949,81.545"/>
		</g>
		<g>
			<path style="fill:#FC9E86;" d="M262.934,309.537l-22.84-8.196c0,0-6.095,1.771-0.652,20.831
				c4.203,14.72,5.547,28.002,5.547,28.002s0.326,4.098-0.979,8.537c-1.305,4.439-1.305,9.562,0.652,17.757
				c1.958,8.196,4.894,22.538,4.894,23.904c0,0.226-0.099,0.584-0.256,1.03c-0.791,2.242-3.063,6.71-1.702,7.849
				c1.631,1.366,22.84,0,22.84,0l-11.42-7.513l4.242-51.564L262.934,309.537z"/>
			<path style="fill:#261F27;" d="M249.301,401.402c0,0,7.177,3.305,11.853,1.891c0,0,13.509,4.568,11.327,6.308
				c-2.182,1.74-23.577,1.257-24.882-0.35C246.294,407.643,249.301,401.402,249.301,401.402z"/>
			<path style="opacity:0.2;fill:#FC9E86;" d="M257.915,346.544l0.128,1.308l2.738,28.018c0,0,3.064-19.718,2.451-28.778
				c-0.613-9.061-3.268-3.93-3.268-3.93"/>
			<path style="fill:#FC9E86;" d="M275.487,345.114c0,0-5.221,7.987-7.632,16.395c-2.41,8.408-0.803,27.324-1.205,32.789
				c-0.402,5.465-4.695,11.197-3.352,14.056c1.253,2.668,20.12,1.077,20.12,1.077s10.073,0.02-1.925-4.196
				c-1-0.352-2.281-1.103-4.118-1.886c-1.332-0.568-2.194-1.971-2.05-3.469c0.093-0.968,0.369-2.239,0.964-3.901
				c2.963-8.276,18.075-41.695,16.066-51.784C290.348,334.106,275.487,345.114,275.487,345.114z"/>
			<path style="fill:#FC9E86;" d="M256.207,292.146c0,0-2.477,3.431-4.546,8.313c-2.788,6.58-4.834,15.796,0.931,22.795
				c10.041,12.191,21.288,27.325,21.288,27.325s16.987,2.643,18.476-1.261c1.63-4.272-1.73-12.441-12.769-31.949
				c-10.849-19.174-11.98-25.188-11.98-25.188L256.207,292.146z"/>
			<path style="fill:#F4CB00;" d="M244.522,346.459c4.539-0.394,13.046-0.368,18.71,0.803l-0.299-37.726l-22.84-8.196
				c0,0-6.094,1.771-0.652,20.831C242.298,332.174,243.831,341.501,244.522,346.459z"/>
			<path style="opacity:0.2;fill:#FC9E86;" d="M251.399,301.092l7.25-0.913c0,0-10.223,15.562,6.815,30.476
				c9.983,8.738,11.669,17.597,11.669,17.597s-2.996,5.422-5.474,11.907c-2.478,6.484-4.732,25.613-4.732,31.125
				c0,5.512-0.679,8.479-0.278,3.014c0.402-5.465-1.205-24.382,1.205-32.789c1.311-4.572,3.452-9.017,5.133-12.123
				c-2.843-3.795-12.034-15.979-20.396-26.131C247.01,316.477,248.751,307.621,251.399,301.092z"/>
			<path style="fill:#FC9E86;" d="M303.336,242.336c0,0,0.388-0.023,1.089-0.272c1.242-0.443,3.25-3.154,3.656-4.661
				c1.791-6.642,6.94-11.77,6.148-8.684c-1.362,5.311,1.806,4.401,4.153,0.545c2.347-3.856,6.793-1.929,5.788,3.268
				c-1.006,5.197-5.024,6.883-7.539,7.889c-2.515,1.006-7.713,5.456-7.713,5.456"/>
			<path style="opacity:0.63;fill:#F4CB00;" d="M257.298,320.455l-12.757-2.522c0,0,9.032,13.967,10.962,18.512
				c1.93,4.544,2.412,10.099,2.412,10.099l5.318,0.548l-0.145-17.211L257.298,320.455z"/>
			<path style="fill:#FC9E86;" d="M262.078,239.868c0,0-1.169,9.523,2.339,14.201c3.508,4.678-5.012,3.174-5.012,3.174l-8.353-4.01
				l-2.839-6.812c0,0,3.675-4.715,1.336-12.902C247.209,225.334,262.078,239.868,262.078,239.868z"/>
			<path style="fill:#FC9E86;" d="M256.919,240.695c0,0,2.945,2.209,4.827,2.209l0.164,3.6
				C261.91,246.505,257.983,243.15,256.919,240.695z"/>
			<path style="fill:#F4CB00;" d="M289.972,336.877c-2.269-6.186-4.375-9.85-9.731-19.508
				c-10.689-19.273-12.634-32.029-12.634-32.029l-11.401,6.807c0,0-8.954-0.305-11.023,4.577c-2.788,6.58-4.383,15.514,0.871,22.94
				c6.018,8.505,19.61,20.046,23.783,25.547C274.021,342.887,278.639,338.596,289.972,336.877z"/>
			<g>
				<path style="fill:#FC9E86;" d="M259.803,214.278c5.425-1.111,9.293-0.943,12.574,5.315c1.961,3.74,0.474,8.315,2.108,10.261
					c1.077,1.283,1.798,0.991,1.35,1.798c-0.599,1.079-1.963,1.29-1.963,1.29s-1.496,7.949-6.344,10.017
					c-8.829,3.767-16.502-5.361-17.379-12.272C249.624,226.545,247.367,216.825,259.803,214.278z"/>
			</g>
			<path style="fill:#FF4F68;" d="M247.232,243.154c0,0,5.447,7.626,15.252,6.536l16.341,54.47c0,0-19.663,11.213-37.04,7.626
				c-6.8-1.404-11.439-7.081-11.439-7.081s8.171-13.073,7.626-26.146C237.427,265.486,236.539,250.597,247.232,243.154z"/>
			<path style="fill:#FF4F68;" d="M251.998,256.363l1.247-6.812l32.661,3.544l21.244-15.524l5.72,6.945
				c0,0-12.453,18.749-19.61,22.878c-10.622,6.128-38.177,2.417-38.177,2.417L251.998,256.363z"/>
			<path style="fill:#261F27;" d="M244.139,216.143c4.778-5.563,9.688-6.308,15.773-6.722c3.203-0.218,11.821,1.555,12.631,8.538
				c0.829,7.144-13.926,1.746-16.289,10.932c-1.292,5.021,10.953,18.062-4.356,28.472c-12.065,8.205-0.878,27.649-16.741,36.065
				c-17.681,9.38-39.892-23.757-15.632-41.781C247.696,230.716,233.118,228.974,244.139,216.143z"/>
			<path style="fill:#261F27;" d="M256.254,228.891c0.965-3.752,3.998-5.07,7.191-5.804c-2.994,0.283-5.826,1.212-7.253,4.443
				c-2.073,4.691,7.939,19.394-8.822,27.079c-13.21,6.056-5.259,26.838-22.25,32.486c-4.171,1.386-8.229,0.724-11.739-1.296
				c5.171,7.567,13.919,11.798,21.776,7.63c15.864-8.416,4.676-27.86,16.741-36.065
				C267.207,246.952,254.962,233.912,256.254,228.891z"/>
			<polygon style="opacity:0.55;fill:#FF4F68;" points="268.724,271.187 256.324,270.794 271.273,279.614 			"/>
			<path style="fill:#FC9E86;" d="M258.079,227.038c0,0-2.173-2.515-4.068,0.111c-2.511,3.481,2.962,6.257,4.837,5.176"/>
			<path style="fill:#FC9E86;" d="M275.487,345.114c0,0-5.221,7.987-7.632,16.395c-2.41,8.408-0.803,27.324-1.205,32.789
				c-0.402,5.465-4.695,11.197-3.352,14.056c1.253,2.668,20.12,1.077,20.12,1.077s10.073,0.02-1.925-4.196
				c-1-0.352-2.281-1.103-4.118-1.886c-1.332-0.568-2.194-1.971-2.05-3.469c0.093-0.968,0.369-2.239,0.964-3.901
				c2.963-8.276,18.075-41.695,16.066-51.784C290.348,334.106,275.487,345.114,275.487,345.114z"/>
			<path style="fill:#261F27;" d="M263.573,402.664l1.77-3.421c0,0,7.451,3.793,12.032,4.106c0,0,11.172,3.277,12.125,5.842
				c0.953,2.565-21.979,2.024-25.792,0.029C263.709,409.22,260.986,408.793,263.573,402.664z"/>
		</g>
	</g>
</g>
</svg>
