<svg xmlns="http://www.w3.org/2000/svg" version="1.1" xmlns:xlink="http://www.w3.org/1999/xlink" xmlns:svgjs="http://svgjs.dev/svgjs" viewBox="0 0 1422 800"><defs><linearGradient x1="50%" y1="0%" x2="50%" y2="100%" id="oooscillate-grad"><stop stop-color="#008080" stop-opacity="1" offset="0%"></stop><stop stop-color="#0056D6" stop-opacity="1" offset="100%"></stop></linearGradient></defs><g stroke-width="1.5" stroke="url(#oooscillate-grad)" fill="none" stroke-linecap="round"><path d="M 0 850 Q 355.5 -100 711 400 Q 1066.5 900 1422 850" stroke-dasharray="92 117" opacity="0.95"></path><path d="M 0 825 Q 355.5 -100 711 400 Q 1066.5 900 1422 825" stroke-dasharray="141 38" opacity="0.27"></path><path d="M 0 800 Q 355.5 -100 711 400 Q 1066.5 900 1422 800" stroke-dasharray="116 4" opacity="0.94"></path><path d="M 0 775 Q 355.5 -100 711 400 Q 1066.5 900 1422 775" stroke-dasharray="48 87" opacity="0.12"></path><path d="M 0 750 Q 355.5 -100 711 400 Q 1066.5 900 1422 750" stroke-dasharray="17 104" opacity="0.86"></path><path d="M 0 725 Q 355.5 -100 711 400 Q 1066.5 900 1422 725" stroke-dasharray="5 23" opacity="0.82"></path><path d="M 0 700 Q 355.5 -100 711 400 Q 1066.5 900 1422 700" stroke-dasharray="70 98" opacity="0.99"></path><path d="M 0 675 Q 355.5 -100 711 400 Q 1066.5 900 1422 675" stroke-dasharray="81 131" opacity="0.22"></path><path d="M 0 650 Q 355.5 -100 711 400 Q 1066.5 900 1422 650" stroke-dasharray="112 62" opacity="0.56"></path><path d="M 0 625 Q 355.5 -100 711 400 Q 1066.5 900 1422 625" stroke-dasharray="29 118" opacity="0.51"></path><path d="M 0 600 Q 355.5 -100 711 400 Q 1066.5 900 1422 600" stroke-dasharray="124 68" opacity="0.53"></path><path d="M 0 575 Q 355.5 -100 711 400 Q 1066.5 900 1422 575" stroke-dasharray="101 144" opacity="0.94"></path><path d="M 0 550 Q 355.5 -100 711 400 Q 1066.5 900 1422 550" stroke-dasharray="110 26" opacity="0.97"></path><path d="M 0 525 Q 355.5 -100 711 400 Q 1066.5 900 1422 525" stroke-dasharray="107 57" opacity="0.37"></path><path d="M 0 500 Q 355.5 -100 711 400 Q 1066.5 900 1422 500" stroke-dasharray="5 150" opacity="0.42"></path><path d="M 0 475 Q 355.5 -100 711 400 Q 1066.5 900 1422 475" stroke-dasharray="88 66" opacity="0.95"></path><path d="M 0 450 Q 355.5 -100 711 400 Q 1066.5 900 1422 450" stroke-dasharray="26 21" opacity="0.53"></path><path d="M 0 425 Q 355.5 -100 711 400 Q 1066.5 900 1422 425" stroke-dasharray="12 73" opacity="0.15"></path><path d="M 0 400 Q 355.5 -100 711 400 Q 1066.5 900 1422 400" stroke-dasharray="72 109" opacity="0.15"></path><path d="M 0 375 Q 355.5 -100 711 400 Q 1066.5 900 1422 375" stroke-dasharray="67 50" opacity="0.47"></path><path d="M 0 350 Q 355.5 -100 711 400 Q 1066.5 900 1422 350" stroke-dasharray="138 32" opacity="0.81"></path><path d="M 0 325 Q 355.5 -100 711 400 Q 1066.5 900 1422 325" stroke-dasharray="89 94" opacity="0.73"></path><path d="M 0 300 Q 355.5 -100 711 400 Q 1066.5 900 1422 300" stroke-dasharray="28 101" opacity="0.51"></path><path d="M 0 275 Q 355.5 -100 711 400 Q 1066.5 900 1422 275" stroke-dasharray="54 35" opacity="0.83"></path><path d="M 0 250 Q 355.5 -100 711 400 Q 1066.5 900 1422 250" stroke-dasharray="78 117" opacity="0.98"></path><path d="M 0 225 Q 355.5 -100 711 400 Q 1066.5 900 1422 225" stroke-dasharray="56 11" opacity="0.24"></path><path d="M 0 200 Q 355.5 -100 711 400 Q 1066.5 900 1422 200" stroke-dasharray="10 91" opacity="0.14"></path><path d="M 0 175 Q 355.5 -100 711 400 Q 1066.5 900 1422 175" stroke-dasharray="18 41" opacity="0.27"></path><path d="M 0 150 Q 355.5 -100 711 400 Q 1066.5 900 1422 150" stroke-dasharray="117 69" opacity="0.61"></path><path d="M 0 125 Q 355.5 -100 711 400 Q 1066.5 900 1422 125" stroke-dasharray="10 46" opacity="0.58"></path><path d="M 0 100 Q 355.5 -100 711 400 Q 1066.5 900 1422 100" stroke-dasharray="66 7" opacity="0.42"></path><path d="M 0 75 Q 355.5 -100 711 400 Q 1066.5 900 1422 75" stroke-dasharray="60 12" opacity="0.89"></path><path d="M 0 50 Q 355.5 -100 711 400 Q 1066.5 900 1422 50" stroke-dasharray="104 29" opacity="0.64"></path></g></svg>